<svg xmlns="http://www.w3.org/2000/svg" version="1.0" width="256.000000pt" height="256.000000pt" viewBox="0 0 256.000000 256.000000" preserveAspectRatio="xMidYMid meet">
  <g transform="translate(0.000000,256.000000) scale(0.100000,-0.100000)" fill="rgba(255,255,255)" stroke="none">
<path d="M260 1336 l0 -194 51 -22 c53 -22 129 -29 187 -16 29 7 32 11 32 46 l0 39 -87 3 -88 3 -3 168 -2 167 -45 0 -45 0 0 -194z"/>
<path d="M587 1523 c-6 -6 -10 -373 -4 -373 1 0 22 6 47 14 l45 13 3 154 c3 195 3 199 -47 199 -21 0 -41 -3 -44 -7z"/>
<path d="M875 1512 c-81 -38 -135 -123 -135 -214 0 -43 27 -118 42 -118 6 0 46 -16 90 -36 44 -20 98 -39 120 -42 31 -4 44 -12 59 -36 26 -42 24 -46 -19 -46 -23 0 -66 14 -112 37 -70 35 -81 37 -170 38 -89 0 -100 -2 -165 -35 -58 -29 -84 -35 -148 -38 -72 -4 -82 -2 -155 33 -60 29 -93 39 -149 43 -79 5 -105 0 -98 -20 4 -9 28 -13 78 -13 64 0 83 -5 155 -38 69 -33 92 -39 150 -39 80 -1 95 3 182 45 56 28 76 32 145 32 72 0 89 -4 163 -38 70 -33 94 -39 151 -39 79 -1 94 3 181 45 56 28 76 32 145 32 71 0 89 -4 163 -38 70 -33 94 -39 151 -39 79 -1 94 3 181 45 56 28 76 32 145 32 72 0 89 -4 163 -39 73 -33 93 -38 157 -38 58 0 86 6 129 25 35 16 56 32 56 42 0 9 -3 15 -8 13 -128 -66 -211 -68 -346 -5 -61 28 -81 32 -151 32 -69 0 -90 -5 -152 -33 -134 -60 -208 -60 -332 0 -58 29 -76 32 -151 33 -72 0 -94 -4 -144 -28 -55 -26 -60 -26 -71 -10 -7 10 -22 29 -32 42 l-20 25 33 43 c79 104 52 258 -58 330 -54 37 -162 44 -223 15z m149 -86 c73 -31 104 -112 67 -181 -26 -50 -66 -75 -118 -75 -79 0 -141 72 -130 152 6 43 26 71 72 99 36 23 64 24 109 5z"/>
<path d="M1264 1516 c-9 -24 0 -324 11 -334 6 -5 34 -7 63 -4 46 3 51 6 40 19 -9 11 -15 66 -18 172 l-5 156 -43 3 c-30 2 -44 -1 -48 -12z"/>
<path d="M1538 1374 l-3 -156 -32 -27 -31 -26 53 -23 c30 -13 59 -21 65 -17 31 19 40 75 40 240 l0 165 -44 0 -45 0 -3 -156z"/>
<path d="M1730 1314 l0 -217 36 6 c65 11 65 9 62 226 l-3 196 -47 3 -48 3 0 -217z"/>
<path d="M1933 1523 c-10 -3 -13 -49 -13 -180 0 -156 2 -174 16 -169 9 3 31 6 50 6 l34 0 0 135 0 135 40 0 c93 0 150 -54 150 -144 0 -43 -4 -53 -39 -87 -22 -23 -49 -39 -62 -39 -17 -1 -10 -6 24 -20 27 -10 55 -24 63 -31 12 -10 21 -6 49 21 53 51 68 91 63 171 -5 89 -39 142 -117 182 -49 24 -65 27 -150 26 -53 0 -102 -3 -108 -6z"/>
<path d="M60 967 c0 -11 16 -16 68 -19 51 -3 83 -12 137 -38 64 -32 77 -35 161 -35 84 0 96 3 172 39 77 36 87 38 160 34 63 -3 89 -9 147 -38 64 -32 77 -35 160 -35 83 0 96 3 171 38 69 31 92 37 149 37 57 0 80 -6 149 -37 75 -35 88 -38 171 -38 83 0 96 3 171 38 113 52 183 52 297 1 54 -25 101 -38 142 -42 76 -6 162 13 175 38 16 30 12 32 -22 13 -25 -13 -56 -18 -123 -18 -84 0 -95 3 -155 35 -62 33 -70 35 -165 35 -95 0 -103 -2 -165 -35 -60 -32 -71 -35 -155 -35 -84 0 -95 3 -155 35 -61 33 -71 35 -160 35 -89 0 -100 -2 -179 -39 -80 -36 -88 -38 -160 -34 -61 4 -91 13 -154 43 -75 36 -80 37 -165 33 -75 -4 -98 -10 -165 -43 -74 -36 -82 -37 -155 -33 -63 4 -89 11 -142 39 -53 27 -79 34 -137 37 -60 4 -73 1 -73 -11z"/>
<path d="M92 859 c2 -7 29 -18 59 -25 30 -6 78 -23 108 -38 112 -58 206 -56 345 6 58 26 84 32 142 33 61 0 81 -5 154 -39 77 -36 92 -40 165 -40 72 0 89 4 165 39 114 52 191 54 297 7 140 -63 216 -63 348 -4 113 51 185 50 310 -3 75 -31 102 -38 161 -39 46 0 77 4 88 13 27 23 18 29 -26 19 -59 -13 -130 -2 -210 33 -138 61 -219 60 -349 -3 -53 -26 -77 -31 -139 -32 -65 -1 -84 3 -143 31 -136 65 -225 65 -357 0 -57 -28 -75 -32 -145 -31 -73 0 -87 4 -160 39 -73 36 -87 40 -160 39 -73 0 -87 -3 -160 -39 -72 -36 -88 -40 -155 -40 -67 0 -86 5 -155 37 -87 40 -191 62 -183 37z"/>
<path d="M140 741 c0 -6 8 -14 18 -18 9 -3 53 -22 97 -41 71 -32 89 -36 165 -37 77 0 92 3 160 35 68 32 82 35 165 35 82 0 96 -3 160 -35 64 -31 77 -34 160 -34 82 0 96 3 160 34 64 32 78 35 160 35 82 0 97 -3 165 -35 67 -30 84 -34 160 -34 76 -1 93 3 160 34 67 31 83 35 160 35 75 0 94 -4 156 -32 83 -39 187 -55 197 -31 4 12 -7 16 -56 21 -41 3 -86 16 -132 38 -64 31 -78 34 -165 34 -88 0 -100 -3 -165 -35 -63 -30 -79 -34 -155 -34 -77 -1 -92 3 -160 34 -68 32 -83 35 -165 35 -82 0 -97 -3 -165 -35 -66 -31 -84 -35 -155 -35 -71 0 -89 4 -155 35 -68 32 -83 35 -165 35 -83 0 -97 -3 -165 -35 -66 -31 -84 -35 -155 -35 -70 0 -90 4 -151 32 -81 38 -134 51 -134 34z"/>
<path d="M640 616 c-19 -7 -61 -26 -94 -41 -52 -24 -67 -27 -135 -23 -55 3 -89 11 -121 29 -25 13 -53 27 -64 32 -41 17 11 -38 60 -63 41 -21 62 -25 139 -25 85 0 97 3 173 39 77 36 87 38 160 34 63 -3 89 -9 147 -38 64 -32 77 -35 160 -35 83 0 96 3 171 38 69 31 92 37 149 37 57 0 80 -6 149 -37 75 -35 88 -38 171 -38 83 0 96 3 171 38 112 51 184 52 293 3 42 -19 89 -36 105 -38 41 -4 44 19 4 27 -18 4 -60 22 -93 39 -56 29 -67 31 -160 31 -95 0 -103 -2 -165 -35 -60 -32 -71 -35 -155 -35 -84 0 -95 3 -155 35 -61 33 -71 35 -160 35 -89 0 -100 -2 -179 -39 -79 -36 -88 -38 -160 -34 -61 4 -91 13 -151 42 -66 32 -83 36 -150 36 -41 -1 -91 -7 -110 -14z"/>
<path d="M674 511 c-17 -4 -62 -23 -100 -42 -61 -30 -79 -34 -147 -34 -78 0 -78 0 -55 -19 30 -24 106 -16 192 20 159 67 213 68 341 7 71 -33 87 -37 159 -37 73 0 90 4 166 39 114 52 191 54 297 7 140 -63 216 -63 348 -4 105 47 187 49 284 8 44 -19 67 -24 74 -17 14 14 -79 57 -155 72 -69 14 -139 1 -229 -43 -53 -26 -77 -31 -139 -32 -65 -1 -84 3 -143 31 -136 65 -225 65 -357 0 -57 -28 -75 -32 -145 -31 -72 0 -88 4 -156 37 -80 40 -172 54 -235 38z"/>
<path d="M640 386 c-161 -66 -169 -70 -159 -82 8 -10 22 -8 67 13 107 48 134 55 212 51 61 -3 89 -10 145 -38 64 -31 78 -34 160 -34 82 0 96 3 160 34 64 32 78 35 160 35 82 0 97 -3 165 -35 67 -30 84 -34 160 -34 76 -1 93 3 160 34 72 33 80 35 182 34 60 0 108 3 108 7 0 16 -87 31 -155 27 -52 -4 -88 -14 -140 -38 -62 -30 -80 -34 -155 -34 -77 -1 -92 3 -160 34 -68 32 -83 35 -165 35 -82 0 -97 -3 -165 -35 -66 -31 -84 -35 -155 -35 -71 0 -89 4 -155 35 -63 29 -88 35 -155 37 -52 2 -92 -2 -115 -11z"/>
<path d="M639 271 c-47 -15 -72 -32 -61 -43 7 -7 25 -5 56 7 72 28 174 18 261 -25 64 -32 77 -35 160 -35 83 0 96 3 171 38 114 52 184 52 298 0 75 -35 88 -38 171 -38 83 0 96 3 171 38 51 23 97 37 121 37 21 0 48 7 59 15 17 15 14 16 -51 13 -54 -3 -87 -12 -145 -38 -67 -31 -83 -35 -160 -35 -78 0 -91 4 -150 35 -61 32 -71 35 -160 35 -89 0 -100 -2 -179 -39 -79 -36 -88 -38 -160 -34 -61 4 -91 13 -151 42 -66 32 -83 36 -150 35 -41 0 -87 -4 -101 -8z"/>
<path d="M713 157 c10 -8 38 -18 63 -22 25 -3 79 -23 121 -43 69 -32 85 -36 157 -36 71 0 90 5 161 37 132 59 188 58 343 -8 50 -21 69 -24 90 -17 26 9 26 10 -18 22 -24 6 -65 22 -90 35 -111 56 -214 54 -340 -8 -57 -28 -75 -32 -145 -31 -72 0 -88 4 -155 37 -54 26 -94 38 -140 43 -58 5 -63 4 -47 -9z"/>
<path d="M1252 43 c-24 -8 -42 -17 -40 -18 2 -2 69 0 148 4 134 6 142 8 105 19 -54 16 -160 14 -213 -5z"/>
</g>
</svg>