<svg xmlns="http://www.w3.org/2000/svg" height="1em" viewBox="0 0 29 27" fill="none">
<path d="M13.7885 26.2899C6.99863 26.2789 1.37894 20.4651 1.38281 13.4565C1.38669 6.4288 6.98314 0.701956 13.8398 0.710948C20.652 0.71994 26.169 6.4268 26.1632 13.4605C26.1584 20.5351 20.5958 26.3019 13.7875 26.2899H13.7885ZM10.7367 14.2018C10.0601 14.2018 9.38452 14.2118 8.70796 14.1968C8.44662 14.1908 8.33434 14.2497 8.36241 14.5525C8.49018 15.9152 8.76506 17.2401 9.24224 18.5189C9.31387 18.7107 9.40679 18.8026 9.62457 18.7996C10.6709 18.7867 11.7172 18.7877 12.7635 18.7996C13.0074 18.8026 13.1013 18.7397 13.0984 18.4679C13.0858 17.1551 13.0858 15.8423 13.0984 14.5295C13.1013 14.2607 13.0103 14.1918 12.7645 14.1968C12.0889 14.2108 11.4123 14.2018 10.7357 14.2018H10.7367ZM16.9303 14.1968C16.2538 14.1968 15.5772 14.2078 14.9016 14.1908C14.6325 14.1838 14.5406 14.2637 14.5444 14.5525C14.558 15.8493 14.559 17.1461 14.5444 18.442C14.5415 18.7347 14.6383 18.8026 14.9045 18.7996C15.9353 18.7857 16.9662 18.7857 17.997 18.7996C18.2351 18.8026 18.3348 18.7047 18.4122 18.4949C18.8797 17.2291 19.1498 15.9202 19.2814 14.5745C19.3133 14.2458 19.2001 14.1828 18.9126 14.1908C18.2525 14.2088 17.5924 14.1968 16.9323 14.1968H16.9303ZM10.7096 12.6991C11.3852 12.6991 12.0618 12.6892 12.7374 12.7041C12.9987 12.7101 13.1042 12.6472 13.1003 12.3505C13.0858 11.0886 13.0868 9.82573 13.1003 8.56387C13.1032 8.28013 13.019 8.1972 12.7461 8.2002C11.7162 8.21519 10.6864 8.21319 9.65651 8.2002C9.42518 8.1972 9.31967 8.28312 9.24031 8.49993C8.78055 9.7488 8.50566 11.0386 8.37596 12.3664C8.34886 12.6422 8.43307 12.7081 8.68279 12.7031C9.35839 12.6892 10.034 12.6981 10.7106 12.6981L10.7096 12.6991ZM16.9003 12.6991C17.5924 12.6991 18.2845 12.6941 18.9765 12.7021C19.1914 12.7051 19.295 12.6662 19.2698 12.4004C19.1411 11.0556 18.8671 9.7488 18.3977 8.48494C18.327 8.29411 18.2399 8.1982 18.0202 8.2012C16.9739 8.21419 15.9286 8.21319 14.8823 8.2022C14.6432 8.2002 14.5415 8.25515 14.5444 8.5299C14.557 9.80875 14.5561 11.0876 14.5444 12.3664C14.5425 12.6292 14.6219 12.7091 14.8735 12.7041C15.5491 12.6892 16.2247 12.6991 16.9013 12.6991H16.9003ZM7.78554 18.7937C7.28997 17.347 7.00637 15.9362 6.91539 14.4895C6.8999 14.2368 6.7944 14.1968 6.58533 14.1988C5.44223 14.2058 4.29816 14.2078 3.15506 14.1988C2.91308 14.1968 2.86662 14.2777 2.88888 14.5195C3.02052 15.9242 3.39219 17.255 3.99811 18.5189C4.08328 18.6957 4.17136 18.8026 4.39108 18.8006C5.50127 18.7887 6.61146 18.7947 7.78651 18.7947L7.78554 18.7937ZM4.85083 12.6991C5.41513 12.6991 5.98039 12.6872 6.54468 12.7041C6.80311 12.7121 6.90571 12.6422 6.927 12.3555C7.02379 11.0576 7.25319 9.78377 7.67713 8.55388C7.77489 8.27014 7.72359 8.18921 7.42257 8.1942C6.42272 8.21119 5.42287 8.20919 4.42302 8.1942C4.17136 8.19021 4.05521 8.29212 3.95165 8.51392C3.38639 9.72482 3.02826 10.9917 2.89663 12.3315C2.86856 12.6162 2.91695 12.7151 3.20732 12.7041C3.75516 12.6842 4.30397 12.6981 4.85277 12.6981L4.85083 12.6991ZM19.8573 18.7937C21.0023 18.7937 22.0816 18.7897 23.1598 18.7976C23.3437 18.7986 23.4521 18.7417 23.5354 18.5679C24.1558 17.272 24.5333 15.9073 24.661 14.4676C24.6785 14.2747 24.6368 14.1948 24.4404 14.1958C23.2963 14.2008 22.1522 14.1998 21.0082 14.1958C20.8378 14.1958 20.7458 14.2358 20.7323 14.4386C20.6374 15.9033 20.3567 17.332 19.8563 18.7947L19.8573 18.7937ZM19.8592 8.20719C20.3461 9.62092 20.6249 11.0287 20.7294 12.4714C20.7449 12.6842 20.8552 12.7011 21.0159 12.7001C22.1416 12.6971 23.2682 12.6971 24.3939 12.7001C24.5797 12.7001 24.6881 12.6822 24.6639 12.4304C24.5304 11.0277 24.1693 9.69585 23.5596 8.43499C23.4879 8.28812 23.4086 8.2022 23.2343 8.2032C22.128 8.20919 21.0207 8.20619 19.8592 8.20619V8.20719ZM11.39 2.49634C8.75829 3.17073 6.71019 4.52451 5.057 6.70455C5.94844 6.70455 6.72568 6.65259 7.49323 6.72053C8.15528 6.77848 8.52308 6.57067 8.82701 5.93724C9.43776 4.66539 10.3292 3.58536 11.39 2.49534V2.49634ZM5.12766 20.2963C6.38207 22.2405 9.54423 24.3347 11.2923 24.3996C10.1569 23.2436 9.22676 21.9588 8.51437 20.5101C8.44081 20.3612 8.34983 20.2923 8.17948 20.2933C7.18156 20.3003 6.18461 20.2973 5.12669 20.2973L5.12766 20.2963ZM16.3874 2.58226C17.4966 3.7642 18.4296 5.06802 19.1517 6.52871C19.1962 6.61862 19.2407 6.70255 19.3608 6.70155C20.3809 6.69955 21.4011 6.70155 22.5123 6.70155C20.8726 4.55049 18.8749 3.18472 16.3874 2.58326V2.58226ZM22.4823 20.2913C21.4098 20.2913 20.4613 20.2973 19.5137 20.2863C19.3085 20.2843 19.1953 20.3572 19.1033 20.5431C18.4132 21.9448 17.5217 23.1967 16.4396 24.3047C16.4154 24.3297 16.4164 24.3816 16.3951 24.4595C18.8787 23.7971 20.8591 22.4304 22.4832 20.2903L22.4823 20.2913ZM13.0926 2.96592C11.8246 4.06992 10.8654 5.27084 10.0698 6.70455C11.0348 6.70455 11.905 6.70455 12.7751 6.70455C12.9387 6.70455 13.0974 6.72753 13.0955 6.46476C13.0877 5.33778 13.0926 4.21079 13.0926 2.96492V2.96592ZM17.5769 6.70455C16.7513 5.24786 15.8037 4.04394 14.5493 2.97091C14.5493 4.19181 14.5503 5.28982 14.5483 6.38783C14.5483 6.56667 14.5483 6.71154 14.7922 6.70854C15.6914 6.69955 16.5896 6.70455 17.5779 6.70455H17.5769ZM13.0926 24.0249C13.0926 22.7841 13.0926 21.6431 13.0926 20.5021C13.0926 20.3552 13.0268 20.2963 12.8884 20.2963C11.9756 20.2983 11.0629 20.2963 10.0717 20.2963C10.8761 21.741 11.8295 22.9429 13.0916 24.0229L13.0926 24.0249ZM14.5503 24.0349C15.8202 22.9259 16.7735 21.726 17.575 20.2903C16.5984 20.2903 15.7282 20.2913 14.8581 20.2893C14.6838 20.2893 14.5454 20.2913 14.5474 20.5421C14.5551 21.6681 14.5512 22.794 14.5512 24.0349H14.5503Z" fill="white"/>
<path d="M13.7885 26.2899C6.99863 26.2789 1.37894 20.4651 1.38281 13.4565C1.38669 6.4288 6.98314 0.701956 13.8398 0.710948C20.652 0.71994 26.169 6.4268 26.1632 13.4605C26.1584 20.5351 20.5958 26.3019 13.7875 26.2899H13.7885ZM10.7367 14.2018C10.0601 14.2018 9.38452 14.2118 8.70796 14.1968C8.44662 14.1908 8.33434 14.2497 8.36241 14.5525C8.49018 15.9152 8.76506 17.2401 9.24224 18.5189C9.31387 18.7107 9.40679 18.8026 9.62457 18.7996C10.6709 18.7867 11.7172 18.7877 12.7635 18.7996C13.0074 18.8026 13.1013 18.7397 13.0984 18.4679C13.0858 17.1551 13.0858 15.8423 13.0984 14.5295C13.1013 14.2607 13.0103 14.1918 12.7645 14.1968C12.0889 14.2108 11.4123 14.2018 10.7357 14.2018H10.7367ZM16.9303 14.1968C16.2538 14.1968 15.5772 14.2078 14.9016 14.1908C14.6325 14.1838 14.5406 14.2637 14.5444 14.5525C14.558 15.8493 14.559 17.1461 14.5444 18.442C14.5415 18.7347 14.6383 18.8026 14.9045 18.7996C15.9353 18.7857 16.9662 18.7857 17.997 18.7996C18.2351 18.8026 18.3348 18.7047 18.4122 18.4949C18.8797 17.2291 19.1498 15.9202 19.2814 14.5745C19.3133 14.2458 19.2001 14.1828 18.9126 14.1908C18.2525 14.2088 17.5924 14.1968 16.9323 14.1968H16.9303ZM10.7096 12.6991C11.3852 12.6991 12.0618 12.6892 12.7374 12.7041C12.9987 12.7101 13.1042 12.6472 13.1003 12.3505C13.0858 11.0886 13.0868 9.82573 13.1003 8.56387C13.1032 8.28013 13.019 8.1972 12.7461 8.2002C11.7162 8.21519 10.6864 8.21319 9.65651 8.2002C9.42518 8.1972 9.31967 8.28312 9.24031 8.49993C8.78055 9.7488 8.50566 11.0386 8.37596 12.3664C8.34886 12.6422 8.43307 12.7081 8.68279 12.7031C9.35839 12.6892 10.034 12.6981 10.7106 12.6981L10.7096 12.6991ZM16.9003 12.6991C17.5924 12.6991 18.2845 12.6941 18.9765 12.7021C19.1914 12.7051 19.295 12.6662 19.2698 12.4004C19.1411 11.0556 18.8671 9.7488 18.3977 8.48494C18.327 8.29411 18.2399 8.1982 18.0202 8.2012C16.9739 8.21419 15.9286 8.21319 14.8823 8.2022C14.6432 8.2002 14.5415 8.25515 14.5444 8.5299C14.557 9.80875 14.5561 11.0876 14.5444 12.3664C14.5425 12.6292 14.6219 12.7091 14.8735 12.7041C15.5491 12.6892 16.2247 12.6991 16.9013 12.6991H16.9003ZM7.78554 18.7937C7.28997 17.347 7.00637 15.9362 6.91539 14.4895C6.8999 14.2368 6.7944 14.1968 6.58533 14.1988C5.44223 14.2058 4.29816 14.2078 3.15506 14.1988C2.91308 14.1968 2.86662 14.2777 2.88888 14.5195C3.02052 15.9242 3.39219 17.255 3.99811 18.5189C4.08328 18.6957 4.17136 18.8026 4.39108 18.8006C5.50127 18.7887 6.61146 18.7947 7.78651 18.7947L7.78554 18.7937ZM4.85083 12.6991C5.41513 12.6991 5.98039 12.6872 6.54468 12.7041C6.80311 12.7121 6.90571 12.6422 6.927 12.3555C7.02379 11.0576 7.25319 9.78377 7.67713 8.55388C7.77489 8.27014 7.72359 8.18921 7.42257 8.1942C6.42272 8.21119 5.42287 8.20919 4.42302 8.1942C4.17136 8.19021 4.05521 8.29212 3.95165 8.51392C3.38639 9.72482 3.02826 10.9917 2.89663 12.3315C2.86856 12.6162 2.91695 12.7151 3.20732 12.7041C3.75516 12.6842 4.30397 12.6981 4.85277 12.6981L4.85083 12.6991ZM19.8573 18.7937C21.0023 18.7937 22.0816 18.7897 23.1598 18.7976C23.3437 18.7986 23.4521 18.7417 23.5354 18.5679C24.1558 17.272 24.5333 15.9073 24.661 14.4676C24.6785 14.2747 24.6368 14.1948 24.4404 14.1958C23.2963 14.2008 22.1522 14.1998 21.0082 14.1958C20.8378 14.1958 20.7458 14.2358 20.7323 14.4386C20.6374 15.9033 20.3567 17.332 19.8563 18.7947L19.8573 18.7937ZM19.8592 8.20719C20.3461 9.62092 20.6249 11.0287 20.7294 12.4714C20.7449 12.6842 20.8552 12.7011 21.0159 12.7001C22.1416 12.6971 23.2682 12.6971 24.3939 12.7001C24.5797 12.7001 24.6881 12.6822 24.6639 12.4304C24.5304 11.0277 24.1693 9.69585 23.5596 8.43499C23.4879 8.28812 23.4086 8.2022 23.2343 8.2032C22.128 8.20919 21.0207 8.20619 19.8592 8.20619V8.20719ZM11.39 2.49634C8.75829 3.17073 6.71019 4.52451 5.057 6.70455C5.94844 6.70455 6.72568 6.65259 7.49323 6.72053C8.15528 6.77848 8.52308 6.57067 8.82701 5.93724C9.43776 4.66539 10.3292 3.58536 11.39 2.49534V2.49634ZM5.12766 20.2963C6.38207 22.2405 9.54423 24.3347 11.2923 24.3996C10.1569 23.2436 9.22676 21.9588 8.51437 20.5101C8.44081 20.3612 8.34983 20.2923 8.17948 20.2933C7.18156 20.3003 6.18461 20.2973 5.12669 20.2973L5.12766 20.2963ZM16.3874 2.58226C17.4966 3.7642 18.4296 5.06802 19.1517 6.52871C19.1962 6.61862 19.2407 6.70255 19.3608 6.70155C20.3809 6.69955 21.4011 6.70155 22.5123 6.70155C20.8726 4.55049 18.8749 3.18472 16.3874 2.58326V2.58226ZM22.4823 20.2913C21.4098 20.2913 20.4613 20.2973 19.5137 20.2863C19.3085 20.2843 19.1953 20.3572 19.1033 20.5431C18.4132 21.9448 17.5217 23.1967 16.4396 24.3047C16.4154 24.3297 16.4164 24.3816 16.3951 24.4595C18.8787 23.7971 20.8591 22.4304 22.4832 20.2903L22.4823 20.2913ZM13.0926 2.96592C11.8246 4.06992 10.8654 5.27084 10.0698 6.70455C11.0348 6.70455 11.905 6.70455 12.7751 6.70455C12.9387 6.70455 13.0974 6.72753 13.0955 6.46476C13.0877 5.33778 13.0926 4.21079 13.0926 2.96492V2.96592ZM17.5769 6.70455C16.7513 5.24786 15.8037 4.04394 14.5493 2.97091C14.5493 4.19181 14.5503 5.28982 14.5483 6.38783C14.5483 6.56667 14.5483 6.71154 14.7922 6.70854C15.6914 6.69955 16.5896 6.70455 17.5779 6.70455H17.5769ZM13.0926 24.0249C13.0926 22.7841 13.0926 21.6431 13.0926 20.5021C13.0926 20.3552 13.0268 20.2963 12.8884 20.2963C11.9756 20.2983 11.0629 20.2963 10.0717 20.2963C10.8761 21.741 11.8295 22.9429 13.0916 24.0229L13.0926 24.0249ZM14.5503 24.0349C15.8202 22.9259 16.7735 21.726 17.575 20.2903C16.5984 20.2903 15.7282 20.2913 14.8581 20.2893C14.6838 20.2893 14.5454 20.2913 14.5474 20.5421C14.5551 21.6681 14.5512 22.794 14.5512 24.0349H14.5503Z" fill="black" fill-opacity="0.2"/>
<path d="M13.7885 26.2899C6.99863 26.2789 1.37894 20.4651 1.38281 13.4565C1.38669 6.4288 6.98314 0.701956 13.8398 0.710948C20.652 0.71994 26.169 6.4268 26.1632 13.4605C26.1584 20.5351 20.5958 26.3019 13.7875 26.2899H13.7885ZM10.7367 14.2018C10.0601 14.2018 9.38452 14.2118 8.70796 14.1968C8.44662 14.1908 8.33434 14.2497 8.36241 14.5525C8.49018 15.9152 8.76506 17.2401 9.24224 18.5189C9.31387 18.7107 9.40679 18.8026 9.62457 18.7996C10.6709 18.7867 11.7172 18.7877 12.7635 18.7996C13.0074 18.8026 13.1013 18.7397 13.0984 18.4679C13.0858 17.1551 13.0858 15.8423 13.0984 14.5295C13.1013 14.2607 13.0103 14.1918 12.7645 14.1968C12.0889 14.2108 11.4123 14.2018 10.7357 14.2018H10.7367ZM16.9303 14.1968C16.2538 14.1968 15.5772 14.2078 14.9016 14.1908C14.6325 14.1838 14.5406 14.2637 14.5444 14.5525C14.558 15.8493 14.559 17.1461 14.5444 18.442C14.5415 18.7347 14.6383 18.8026 14.9045 18.7996C15.9353 18.7857 16.9662 18.7857 17.997 18.7996C18.2351 18.8026 18.3348 18.7047 18.4122 18.4949C18.8797 17.2291 19.1498 15.9202 19.2814 14.5745C19.3133 14.2458 19.2001 14.1828 18.9126 14.1908C18.2525 14.2088 17.5924 14.1968 16.9323 14.1968H16.9303ZM10.7096 12.6991C11.3852 12.6991 12.0618 12.6892 12.7374 12.7041C12.9987 12.7101 13.1042 12.6472 13.1003 12.3505C13.0858 11.0886 13.0868 9.82573 13.1003 8.56387C13.1032 8.28013 13.019 8.1972 12.7461 8.2002C11.7162 8.21519 10.6864 8.21319 9.65651 8.2002C9.42518 8.1972 9.31967 8.28312 9.24031 8.49993C8.78055 9.7488 8.50566 11.0386 8.37596 12.3664C8.34886 12.6422 8.43307 12.7081 8.68279 12.7031C9.35839 12.6892 10.034 12.6981 10.7106 12.6981L10.7096 12.6991ZM16.9003 12.6991C17.5924 12.6991 18.2845 12.6941 18.9765 12.7021C19.1914 12.7051 19.295 12.6662 19.2698 12.4004C19.1411 11.0556 18.8671 9.7488 18.3977 8.48494C18.327 8.29411 18.2399 8.1982 18.0202 8.2012C16.9739 8.21419 15.9286 8.21319 14.8823 8.2022C14.6432 8.2002 14.5415 8.25515 14.5444 8.5299C14.557 9.80875 14.5561 11.0876 14.5444 12.3664C14.5425 12.6292 14.6219 12.7091 14.8735 12.7041C15.5491 12.6892 16.2247 12.6991 16.9013 12.6991H16.9003ZM7.78554 18.7937C7.28997 17.347 7.00637 15.9362 6.91539 14.4895C6.8999 14.2368 6.7944 14.1968 6.58533 14.1988C5.44223 14.2058 4.29816 14.2078 3.15506 14.1988C2.91308 14.1968 2.86662 14.2777 2.88888 14.5195C3.02052 15.9242 3.39219 17.255 3.99811 18.5189C4.08328 18.6957 4.17136 18.8026 4.39108 18.8006C5.50127 18.7887 6.61146 18.7947 7.78651 18.7947L7.78554 18.7937ZM4.85083 12.6991C5.41513 12.6991 5.98039 12.6872 6.54468 12.7041C6.80311 12.7121 6.90571 12.6422 6.927 12.3555C7.02379 11.0576 7.25319 9.78377 7.67713 8.55388C7.77489 8.27014 7.72359 8.18921 7.42257 8.1942C6.42272 8.21119 5.42287 8.20919 4.42302 8.1942C4.17136 8.19021 4.05521 8.29212 3.95165 8.51392C3.38639 9.72482 3.02826 10.9917 2.89663 12.3315C2.86856 12.6162 2.91695 12.7151 3.20732 12.7041C3.75516 12.6842 4.30397 12.6981 4.85277 12.6981L4.85083 12.6991ZM19.8573 18.7937C21.0023 18.7937 22.0816 18.7897 23.1598 18.7976C23.3437 18.7986 23.4521 18.7417 23.5354 18.5679C24.1558 17.272 24.5333 15.9073 24.661 14.4676C24.6785 14.2747 24.6368 14.1948 24.4404 14.1958C23.2963 14.2008 22.1522 14.1998 21.0082 14.1958C20.8378 14.1958 20.7458 14.2358 20.7323 14.4386C20.6374 15.9033 20.3567 17.332 19.8563 18.7947L19.8573 18.7937ZM19.8592 8.20719C20.3461 9.62092 20.6249 11.0287 20.7294 12.4714C20.7449 12.6842 20.8552 12.7011 21.0159 12.7001C22.1416 12.6971 23.2682 12.6971 24.3939 12.7001C24.5797 12.7001 24.6881 12.6822 24.6639 12.4304C24.5304 11.0277 24.1693 9.69585 23.5596 8.43499C23.4879 8.28812 23.4086 8.2022 23.2343 8.2032C22.128 8.20919 21.0207 8.20619 19.8592 8.20619V8.20719ZM11.39 2.49634C8.75829 3.17073 6.71019 4.52451 5.057 6.70455C5.94844 6.70455 6.72568 6.65259 7.49323 6.72053C8.15528 6.77848 8.52308 6.57067 8.82701 5.93724C9.43776 4.66539 10.3292 3.58536 11.39 2.49534V2.49634ZM5.12766 20.2963C6.38207 22.2405 9.54423 24.3347 11.2923 24.3996C10.1569 23.2436 9.22676 21.9588 8.51437 20.5101C8.44081 20.3612 8.34983 20.2923 8.17948 20.2933C7.18156 20.3003 6.18461 20.2973 5.12669 20.2973L5.12766 20.2963ZM16.3874 2.58226C17.4966 3.7642 18.4296 5.06802 19.1517 6.52871C19.1962 6.61862 19.2407 6.70255 19.3608 6.70155C20.3809 6.69955 21.4011 6.70155 22.5123 6.70155C20.8726 4.55049 18.8749 3.18472 16.3874 2.58326V2.58226ZM22.4823 20.2913C21.4098 20.2913 20.4613 20.2973 19.5137 20.2863C19.3085 20.2843 19.1953 20.3572 19.1033 20.5431C18.4132 21.9448 17.5217 23.1967 16.4396 24.3047C16.4154 24.3297 16.4164 24.3816 16.3951 24.4595C18.8787 23.7971 20.8591 22.4304 22.4832 20.2903L22.4823 20.2913ZM13.0926 2.96592C11.8246 4.06992 10.8654 5.27084 10.0698 6.70455C11.0348 6.70455 11.905 6.70455 12.7751 6.70455C12.9387 6.70455 13.0974 6.72753 13.0955 6.46476C13.0877 5.33778 13.0926 4.21079 13.0926 2.96492V2.96592ZM17.5769 6.70455C16.7513 5.24786 15.8037 4.04394 14.5493 2.97091C14.5493 4.19181 14.5503 5.28982 14.5483 6.38783C14.5483 6.56667 14.5483 6.71154 14.7922 6.70854C15.6914 6.69955 16.5896 6.70455 17.5779 6.70455H17.5769ZM13.0926 24.0249C13.0926 22.7841 13.0926 21.6431 13.0926 20.5021C13.0926 20.3552 13.0268 20.2963 12.8884 20.2963C11.9756 20.2983 11.0629 20.2963 10.0717 20.2963C10.8761 21.741 11.8295 22.9429 13.0916 24.0229L13.0926 24.0249ZM14.5503 24.0349C15.8202 22.9259 16.7735 21.726 17.575 20.2903C16.5984 20.2903 15.7282 20.2913 14.8581 20.2893C14.6838 20.2893 14.5454 20.2913 14.5474 20.5421C14.5551 21.6681 14.5512 22.794 14.5512 24.0349H14.5503Z" fill="black" fill-opacity="0.2"/>
<path d="M13.7885 26.2899C6.99863 26.2789 1.37894 20.4651 1.38281 13.4565C1.38669 6.4288 6.98314 0.701956 13.8398 0.710948C20.652 0.71994 26.169 6.4268 26.1632 13.4605C26.1584 20.5351 20.5958 26.3019 13.7875 26.2899H13.7885ZM10.7367 14.2018C10.0601 14.2018 9.38452 14.2118 8.70796 14.1968C8.44662 14.1908 8.33434 14.2497 8.36241 14.5525C8.49018 15.9152 8.76506 17.2401 9.24224 18.5189C9.31387 18.7107 9.40679 18.8026 9.62457 18.7996C10.6709 18.7867 11.7172 18.7877 12.7635 18.7996C13.0074 18.8026 13.1013 18.7397 13.0984 18.4679C13.0858 17.1551 13.0858 15.8423 13.0984 14.5295C13.1013 14.2607 13.0103 14.1918 12.7645 14.1968C12.0889 14.2108 11.4123 14.2018 10.7357 14.2018H10.7367ZM16.9303 14.1968C16.2538 14.1968 15.5772 14.2078 14.9016 14.1908C14.6325 14.1838 14.5406 14.2637 14.5444 14.5525C14.558 15.8493 14.559 17.1461 14.5444 18.442C14.5415 18.7347 14.6383 18.8026 14.9045 18.7996C15.9353 18.7857 16.9662 18.7857 17.997 18.7996C18.2351 18.8026 18.3348 18.7047 18.4122 18.4949C18.8797 17.2291 19.1498 15.9202 19.2814 14.5745C19.3133 14.2458 19.2001 14.1828 18.9126 14.1908C18.2525 14.2088 17.5924 14.1968 16.9323 14.1968H16.9303ZM10.7096 12.6991C11.3852 12.6991 12.0618 12.6892 12.7374 12.7041C12.9987 12.7101 13.1042 12.6472 13.1003 12.3505C13.0858 11.0886 13.0868 9.82573 13.1003 8.56387C13.1032 8.28013 13.019 8.1972 12.7461 8.2002C11.7162 8.21519 10.6864 8.21319 9.65651 8.2002C9.42518 8.1972 9.31967 8.28312 9.24031 8.49993C8.78055 9.7488 8.50566 11.0386 8.37596 12.3664C8.34886 12.6422 8.43307 12.7081 8.68279 12.7031C9.35839 12.6892 10.034 12.6981 10.7106 12.6981L10.7096 12.6991ZM16.9003 12.6991C17.5924 12.6991 18.2845 12.6941 18.9765 12.7021C19.1914 12.7051 19.295 12.6662 19.2698 12.4004C19.1411 11.0556 18.8671 9.7488 18.3977 8.48494C18.327 8.29411 18.2399 8.1982 18.0202 8.2012C16.9739 8.21419 15.9286 8.21319 14.8823 8.2022C14.6432 8.2002 14.5415 8.25515 14.5444 8.5299C14.557 9.80875 14.5561 11.0876 14.5444 12.3664C14.5425 12.6292 14.6219 12.7091 14.8735 12.7041C15.5491 12.6892 16.2247 12.6991 16.9013 12.6991H16.9003ZM7.78554 18.7937C7.28997 17.347 7.00637 15.9362 6.91539 14.4895C6.8999 14.2368 6.7944 14.1968 6.58533 14.1988C5.44223 14.2058 4.29816 14.2078 3.15506 14.1988C2.91308 14.1968 2.86662 14.2777 2.88888 14.5195C3.02052 15.9242 3.39219 17.255 3.99811 18.5189C4.08328 18.6957 4.17136 18.8026 4.39108 18.8006C5.50127 18.7887 6.61146 18.7947 7.78651 18.7947L7.78554 18.7937ZM4.85083 12.6991C5.41513 12.6991 5.98039 12.6872 6.54468 12.7041C6.80311 12.7121 6.90571 12.6422 6.927 12.3555C7.02379 11.0576 7.25319 9.78377 7.67713 8.55388C7.77489 8.27014 7.72359 8.18921 7.42257 8.1942C6.42272 8.21119 5.42287 8.20919 4.42302 8.1942C4.17136 8.19021 4.05521 8.29212 3.95165 8.51392C3.38639 9.72482 3.02826 10.9917 2.89663 12.3315C2.86856 12.6162 2.91695 12.7151 3.20732 12.7041C3.75516 12.6842 4.30397 12.6981 4.85277 12.6981L4.85083 12.6991ZM19.8573 18.7937C21.0023 18.7937 22.0816 18.7897 23.1598 18.7976C23.3437 18.7986 23.4521 18.7417 23.5354 18.5679C24.1558 17.272 24.5333 15.9073 24.661 14.4676C24.6785 14.2747 24.6368 14.1948 24.4404 14.1958C23.2963 14.2008 22.1522 14.1998 21.0082 14.1958C20.8378 14.1958 20.7458 14.2358 20.7323 14.4386C20.6374 15.9033 20.3567 17.332 19.8563 18.7947L19.8573 18.7937ZM19.8592 8.20719C20.3461 9.62092 20.6249 11.0287 20.7294 12.4714C20.7449 12.6842 20.8552 12.7011 21.0159 12.7001C22.1416 12.6971 23.2682 12.6971 24.3939 12.7001C24.5797 12.7001 24.6881 12.6822 24.6639 12.4304C24.5304 11.0277 24.1693 9.69585 23.5596 8.43499C23.4879 8.28812 23.4086 8.2022 23.2343 8.2032C22.128 8.20919 21.0207 8.20619 19.8592 8.20619V8.20719ZM11.39 2.49634C8.75829 3.17073 6.71019 4.52451 5.057 6.70455C5.94844 6.70455 6.72568 6.65259 7.49323 6.72053C8.15528 6.77848 8.52308 6.57067 8.82701 5.93724C9.43776 4.66539 10.3292 3.58536 11.39 2.49534V2.49634ZM5.12766 20.2963C6.38207 22.2405 9.54423 24.3347 11.2923 24.3996C10.1569 23.2436 9.22676 21.9588 8.51437 20.5101C8.44081 20.3612 8.34983 20.2923 8.17948 20.2933C7.18156 20.3003 6.18461 20.2973 5.12669 20.2973L5.12766 20.2963ZM16.3874 2.58226C17.4966 3.7642 18.4296 5.06802 19.1517 6.52871C19.1962 6.61862 19.2407 6.70255 19.3608 6.70155C20.3809 6.69955 21.4011 6.70155 22.5123 6.70155C20.8726 4.55049 18.8749 3.18472 16.3874 2.58326V2.58226ZM22.4823 20.2913C21.4098 20.2913 20.4613 20.2973 19.5137 20.2863C19.3085 20.2843 19.1953 20.3572 19.1033 20.5431C18.4132 21.9448 17.5217 23.1967 16.4396 24.3047C16.4154 24.3297 16.4164 24.3816 16.3951 24.4595C18.8787 23.7971 20.8591 22.4304 22.4832 20.2903L22.4823 20.2913ZM13.0926 2.96592C11.8246 4.06992 10.8654 5.27084 10.0698 6.70455C11.0348 6.70455 11.905 6.70455 12.7751 6.70455C12.9387 6.70455 13.0974 6.72753 13.0955 6.46476C13.0877 5.33778 13.0926 4.21079 13.0926 2.96492V2.96592ZM17.5769 6.70455C16.7513 5.24786 15.8037 4.04394 14.5493 2.97091C14.5493 4.19181 14.5503 5.28982 14.5483 6.38783C14.5483 6.56667 14.5483 6.71154 14.7922 6.70854C15.6914 6.69955 16.5896 6.70455 17.5779 6.70455H17.5769ZM13.0926 24.0249C13.0926 22.7841 13.0926 21.6431 13.0926 20.5021C13.0926 20.3552 13.0268 20.2963 12.8884 20.2963C11.9756 20.2983 11.0629 20.2963 10.0717 20.2963C10.8761 21.741 11.8295 22.9429 13.0916 24.0229L13.0926 24.0249ZM14.5503 24.0349C15.8202 22.9259 16.7735 21.726 17.575 20.2903C16.5984 20.2903 15.7282 20.2913 14.8581 20.2893C14.6838 20.2893 14.5454 20.2913 14.5474 20.5421C14.5551 21.6681 14.5512 22.794 14.5512 24.0349H14.5503Z" stroke="white" stroke-width="0.5"/>
<path d="M13.7885 26.2899C6.99863 26.2789 1.37894 20.4651 1.38281 13.4565C1.38669 6.4288 6.98314 0.701956 13.8398 0.710948C20.652 0.71994 26.169 6.4268 26.1632 13.4605C26.1584 20.5351 20.5958 26.3019 13.7875 26.2899H13.7885ZM10.7367 14.2018C10.0601 14.2018 9.38452 14.2118 8.70796 14.1968C8.44662 14.1908 8.33434 14.2497 8.36241 14.5525C8.49018 15.9152 8.76506 17.2401 9.24224 18.5189C9.31387 18.7107 9.40679 18.8026 9.62457 18.7996C10.6709 18.7867 11.7172 18.7877 12.7635 18.7996C13.0074 18.8026 13.1013 18.7397 13.0984 18.4679C13.0858 17.1551 13.0858 15.8423 13.0984 14.5295C13.1013 14.2607 13.0103 14.1918 12.7645 14.1968C12.0889 14.2108 11.4123 14.2018 10.7357 14.2018H10.7367ZM16.9303 14.1968C16.2538 14.1968 15.5772 14.2078 14.9016 14.1908C14.6325 14.1838 14.5406 14.2637 14.5444 14.5525C14.558 15.8493 14.559 17.1461 14.5444 18.442C14.5415 18.7347 14.6383 18.8026 14.9045 18.7996C15.9353 18.7857 16.9662 18.7857 17.997 18.7996C18.2351 18.8026 18.3348 18.7047 18.4122 18.4949C18.8797 17.2291 19.1498 15.9202 19.2814 14.5745C19.3133 14.2458 19.2001 14.1828 18.9126 14.1908C18.2525 14.2088 17.5924 14.1968 16.9323 14.1968H16.9303ZM10.7096 12.6991C11.3852 12.6991 12.0618 12.6892 12.7374 12.7041C12.9987 12.7101 13.1042 12.6472 13.1003 12.3505C13.0858 11.0886 13.0868 9.82573 13.1003 8.56387C13.1032 8.28013 13.019 8.1972 12.7461 8.2002C11.7162 8.21519 10.6864 8.21319 9.65651 8.2002C9.42518 8.1972 9.31967 8.28312 9.24031 8.49993C8.78055 9.7488 8.50566 11.0386 8.37596 12.3664C8.34886 12.6422 8.43307 12.7081 8.68279 12.7031C9.35839 12.6892 10.034 12.6981 10.7106 12.6981L10.7096 12.6991ZM16.9003 12.6991C17.5924 12.6991 18.2845 12.6941 18.9765 12.7021C19.1914 12.7051 19.295 12.6662 19.2698 12.4004C19.1411 11.0556 18.8671 9.7488 18.3977 8.48494C18.327 8.29411 18.2399 8.1982 18.0202 8.2012C16.9739 8.21419 15.9286 8.21319 14.8823 8.2022C14.6432 8.2002 14.5415 8.25515 14.5444 8.5299C14.557 9.80875 14.5561 11.0876 14.5444 12.3664C14.5425 12.6292 14.6219 12.7091 14.8735 12.7041C15.5491 12.6892 16.2247 12.6991 16.9013 12.6991H16.9003ZM7.78554 18.7937C7.28997 17.347 7.00637 15.9362 6.91539 14.4895C6.8999 14.2368 6.7944 14.1968 6.58533 14.1988C5.44223 14.2058 4.29816 14.2078 3.15506 14.1988C2.91308 14.1968 2.86662 14.2777 2.88888 14.5195C3.02052 15.9242 3.39219 17.255 3.99811 18.5189C4.08328 18.6957 4.17136 18.8026 4.39108 18.8006C5.50127 18.7887 6.61146 18.7947 7.78651 18.7947L7.78554 18.7937ZM4.85083 12.6991C5.41513 12.6991 5.98039 12.6872 6.54468 12.7041C6.80311 12.7121 6.90571 12.6422 6.927 12.3555C7.02379 11.0576 7.25319 9.78377 7.67713 8.55388C7.77489 8.27014 7.72359 8.18921 7.42257 8.1942C6.42272 8.21119 5.42287 8.20919 4.42302 8.1942C4.17136 8.19021 4.05521 8.29212 3.95165 8.51392C3.38639 9.72482 3.02826 10.9917 2.89663 12.3315C2.86856 12.6162 2.91695 12.7151 3.20732 12.7041C3.75516 12.6842 4.30397 12.6981 4.85277 12.6981L4.85083 12.6991ZM19.8573 18.7937C21.0023 18.7937 22.0816 18.7897 23.1598 18.7976C23.3437 18.7986 23.4521 18.7417 23.5354 18.5679C24.1558 17.272 24.5333 15.9073 24.661 14.4676C24.6785 14.2747 24.6368 14.1948 24.4404 14.1958C23.2963 14.2008 22.1522 14.1998 21.0082 14.1958C20.8378 14.1958 20.7458 14.2358 20.7323 14.4386C20.6374 15.9033 20.3567 17.332 19.8563 18.7947L19.8573 18.7937ZM19.8592 8.20719C20.3461 9.62092 20.6249 11.0287 20.7294 12.4714C20.7449 12.6842 20.8552 12.7011 21.0159 12.7001C22.1416 12.6971 23.2682 12.6971 24.3939 12.7001C24.5797 12.7001 24.6881 12.6822 24.6639 12.4304C24.5304 11.0277 24.1693 9.69585 23.5596 8.43499C23.4879 8.28812 23.4086 8.2022 23.2343 8.2032C22.128 8.20919 21.0207 8.20619 19.8592 8.20619V8.20719ZM11.39 2.49634C8.75829 3.17073 6.71019 4.52451 5.057 6.70455C5.94844 6.70455 6.72568 6.65259 7.49323 6.72053C8.15528 6.77848 8.52308 6.57067 8.82701 5.93724C9.43776 4.66539 10.3292 3.58536 11.39 2.49534V2.49634ZM5.12766 20.2963C6.38207 22.2405 9.54423 24.3347 11.2923 24.3996C10.1569 23.2436 9.22676 21.9588 8.51437 20.5101C8.44081 20.3612 8.34983 20.2923 8.17948 20.2933C7.18156 20.3003 6.18461 20.2973 5.12669 20.2973L5.12766 20.2963ZM16.3874 2.58226C17.4966 3.7642 18.4296 5.06802 19.1517 6.52871C19.1962 6.61862 19.2407 6.70255 19.3608 6.70155C20.3809 6.69955 21.4011 6.70155 22.5123 6.70155C20.8726 4.55049 18.8749 3.18472 16.3874 2.58326V2.58226ZM22.4823 20.2913C21.4098 20.2913 20.4613 20.2973 19.5137 20.2863C19.3085 20.2843 19.1953 20.3572 19.1033 20.5431C18.4132 21.9448 17.5217 23.1967 16.4396 24.3047C16.4154 24.3297 16.4164 24.3816 16.3951 24.4595C18.8787 23.7971 20.8591 22.4304 22.4832 20.2903L22.4823 20.2913ZM13.0926 2.96592C11.8246 4.06992 10.8654 5.27084 10.0698 6.70455C11.0348 6.70455 11.905 6.70455 12.7751 6.70455C12.9387 6.70455 13.0974 6.72753 13.0955 6.46476C13.0877 5.33778 13.0926 4.21079 13.0926 2.96492V2.96592ZM17.5769 6.70455C16.7513 5.24786 15.8037 4.04394 14.5493 2.97091C14.5493 4.19181 14.5503 5.28982 14.5483 6.38783C14.5483 6.56667 14.5483 6.71154 14.7922 6.70854C15.6914 6.69955 16.5896 6.70455 17.5779 6.70455H17.5769ZM13.0926 24.0249C13.0926 22.7841 13.0926 21.6431 13.0926 20.5021C13.0926 20.3552 13.0268 20.2963 12.8884 20.2963C11.9756 20.2983 11.0629 20.2963 10.0717 20.2963C10.8761 21.741 11.8295 22.9429 13.0916 24.0229L13.0926 24.0249ZM14.5503 24.0349C15.8202 22.9259 16.7735 21.726 17.575 20.2903C16.5984 20.2903 15.7282 20.2913 14.8581 20.2893C14.6838 20.2893 14.5454 20.2913 14.5474 20.5421C14.5551 21.6681 14.5512 22.794 14.5512 24.0349H14.5503Z" stroke="black" stroke-opacity="0.2" stroke-width="0.5"/>
<path d="M13.7885 26.2899C6.99863 26.2789 1.37894 20.4651 1.38281 13.4565C1.38669 6.4288 6.98314 0.701956 13.8398 0.710948C20.652 0.71994 26.169 6.4268 26.1632 13.4605C26.1584 20.5351 20.5958 26.3019 13.7875 26.2899H13.7885ZM10.7367 14.2018C10.0601 14.2018 9.38452 14.2118 8.70796 14.1968C8.44662 14.1908 8.33434 14.2497 8.36241 14.5525C8.49018 15.9152 8.76506 17.2401 9.24224 18.5189C9.31387 18.7107 9.40679 18.8026 9.62457 18.7996C10.6709 18.7867 11.7172 18.7877 12.7635 18.7996C13.0074 18.8026 13.1013 18.7397 13.0984 18.4679C13.0858 17.1551 13.0858 15.8423 13.0984 14.5295C13.1013 14.2607 13.0103 14.1918 12.7645 14.1968C12.0889 14.2108 11.4123 14.2018 10.7357 14.2018H10.7367ZM16.9303 14.1968C16.2538 14.1968 15.5772 14.2078 14.9016 14.1908C14.6325 14.1838 14.5406 14.2637 14.5444 14.5525C14.558 15.8493 14.559 17.1461 14.5444 18.442C14.5415 18.7347 14.6383 18.8026 14.9045 18.7996C15.9353 18.7857 16.9662 18.7857 17.997 18.7996C18.2351 18.8026 18.3348 18.7047 18.4122 18.4949C18.8797 17.2291 19.1498 15.9202 19.2814 14.5745C19.3133 14.2458 19.2001 14.1828 18.9126 14.1908C18.2525 14.2088 17.5924 14.1968 16.9323 14.1968H16.9303ZM10.7096 12.6991C11.3852 12.6991 12.0618 12.6892 12.7374 12.7041C12.9987 12.7101 13.1042 12.6472 13.1003 12.3505C13.0858 11.0886 13.0868 9.82573 13.1003 8.56387C13.1032 8.28013 13.019 8.1972 12.7461 8.2002C11.7162 8.21519 10.6864 8.21319 9.65651 8.2002C9.42518 8.1972 9.31967 8.28312 9.24031 8.49993C8.78055 9.7488 8.50566 11.0386 8.37596 12.3664C8.34886 12.6422 8.43307 12.7081 8.68279 12.7031C9.35839 12.6892 10.034 12.6981 10.7106 12.6981L10.7096 12.6991ZM16.9003 12.6991C17.5924 12.6991 18.2845 12.6941 18.9765 12.7021C19.1914 12.7051 19.295 12.6662 19.2698 12.4004C19.1411 11.0556 18.8671 9.7488 18.3977 8.48494C18.327 8.29411 18.2399 8.1982 18.0202 8.2012C16.9739 8.21419 15.9286 8.21319 14.8823 8.2022C14.6432 8.2002 14.5415 8.25515 14.5444 8.5299C14.557 9.80875 14.5561 11.0876 14.5444 12.3664C14.5425 12.6292 14.6219 12.7091 14.8735 12.7041C15.5491 12.6892 16.2247 12.6991 16.9013 12.6991H16.9003ZM7.78554 18.7937C7.28997 17.347 7.00637 15.9362 6.91539 14.4895C6.8999 14.2368 6.7944 14.1968 6.58533 14.1988C5.44223 14.2058 4.29816 14.2078 3.15506 14.1988C2.91308 14.1968 2.86662 14.2777 2.88888 14.5195C3.02052 15.9242 3.39219 17.255 3.99811 18.5189C4.08328 18.6957 4.17136 18.8026 4.39108 18.8006C5.50127 18.7887 6.61146 18.7947 7.78651 18.7947L7.78554 18.7937ZM4.85083 12.6991C5.41513 12.6991 5.98039 12.6872 6.54468 12.7041C6.80311 12.7121 6.90571 12.6422 6.927 12.3555C7.02379 11.0576 7.25319 9.78377 7.67713 8.55388C7.77489 8.27014 7.72359 8.18921 7.42257 8.1942C6.42272 8.21119 5.42287 8.20919 4.42302 8.1942C4.17136 8.19021 4.05521 8.29212 3.95165 8.51392C3.38639 9.72482 3.02826 10.9917 2.89663 12.3315C2.86856 12.6162 2.91695 12.7151 3.20732 12.7041C3.75516 12.6842 4.30397 12.6981 4.85277 12.6981L4.85083 12.6991ZM19.8573 18.7937C21.0023 18.7937 22.0816 18.7897 23.1598 18.7976C23.3437 18.7986 23.4521 18.7417 23.5354 18.5679C24.1558 17.272 24.5333 15.9073 24.661 14.4676C24.6785 14.2747 24.6368 14.1948 24.4404 14.1958C23.2963 14.2008 22.1522 14.1998 21.0082 14.1958C20.8378 14.1958 20.7458 14.2358 20.7323 14.4386C20.6374 15.9033 20.3567 17.332 19.8563 18.7947L19.8573 18.7937ZM19.8592 8.20719C20.3461 9.62092 20.6249 11.0287 20.7294 12.4714C20.7449 12.6842 20.8552 12.7011 21.0159 12.7001C22.1416 12.6971 23.2682 12.6971 24.3939 12.7001C24.5797 12.7001 24.6881 12.6822 24.6639 12.4304C24.5304 11.0277 24.1693 9.69585 23.5596 8.43499C23.4879 8.28812 23.4086 8.2022 23.2343 8.2032C22.128 8.20919 21.0207 8.20619 19.8592 8.20619V8.20719ZM11.39 2.49634C8.75829 3.17073 6.71019 4.52451 5.057 6.70455C5.94844 6.70455 6.72568 6.65259 7.49323 6.72053C8.15528 6.77848 8.52308 6.57067 8.82701 5.93724C9.43776 4.66539 10.3292 3.58536 11.39 2.49534V2.49634ZM5.12766 20.2963C6.38207 22.2405 9.54423 24.3347 11.2923 24.3996C10.1569 23.2436 9.22676 21.9588 8.51437 20.5101C8.44081 20.3612 8.34983 20.2923 8.17948 20.2933C7.18156 20.3003 6.18461 20.2973 5.12669 20.2973L5.12766 20.2963ZM16.3874 2.58226C17.4966 3.7642 18.4296 5.06802 19.1517 6.52871C19.1962 6.61862 19.2407 6.70255 19.3608 6.70155C20.3809 6.69955 21.4011 6.70155 22.5123 6.70155C20.8726 4.55049 18.8749 3.18472 16.3874 2.58326V2.58226ZM22.4823 20.2913C21.4098 20.2913 20.4613 20.2973 19.5137 20.2863C19.3085 20.2843 19.1953 20.3572 19.1033 20.5431C18.4132 21.9448 17.5217 23.1967 16.4396 24.3047C16.4154 24.3297 16.4164 24.3816 16.3951 24.4595C18.8787 23.7971 20.8591 22.4304 22.4832 20.2903L22.4823 20.2913ZM13.0926 2.96592C11.8246 4.06992 10.8654 5.27084 10.0698 6.70455C11.0348 6.70455 11.905 6.70455 12.7751 6.70455C12.9387 6.70455 13.0974 6.72753 13.0955 6.46476C13.0877 5.33778 13.0926 4.21079 13.0926 2.96492V2.96592ZM17.5769 6.70455C16.7513 5.24786 15.8037 4.04394 14.5493 2.97091C14.5493 4.19181 14.5503 5.28982 14.5483 6.38783C14.5483 6.56667 14.5483 6.71154 14.7922 6.70854C15.6914 6.69955 16.5896 6.70455 17.5779 6.70455H17.5769ZM13.0926 24.0249C13.0926 22.7841 13.0926 21.6431 13.0926 20.5021C13.0926 20.3552 13.0268 20.2963 12.8884 20.2963C11.9756 20.2983 11.0629 20.2963 10.0717 20.2963C10.8761 21.741 11.8295 22.9429 13.0916 24.0229L13.0926 24.0249ZM14.5503 24.0349C15.8202 22.9259 16.7735 21.726 17.575 20.2903C16.5984 20.2903 15.7282 20.2913 14.8581 20.2893C14.6838 20.2893 14.5454 20.2913 14.5474 20.5421C14.5551 21.6681 14.5512 22.794 14.5512 24.0349H14.5503Z" stroke="black" stroke-opacity="0.2" stroke-width="0.5"/>
</svg>